<?xml version="1.0" standalone="no"?>
<!DOCTYPE svg PUBLIC "-//W3C//DTD SVG 20010904//EN"
 "http://www.w3.org/TR/2001/REC-SVG-20010904/DTD/svg10.dtd">
<svg version="1.0" xmlns="http://www.w3.org/2000/svg"
 width="1200.000000pt" height="1200.000000pt" viewBox="0 0 1200.000000 1200.000000"
 preserveAspectRatio="xMidYMid meet">
<metadata>
Created by potrace 1.11, written by Peter Selinger 2001-2013
</metadata>
<g transform="translate(0.000000,1200.000000) scale(0.100000,-0.100000)"
fill="#000000" stroke="none">
<path d="M5580 9494 c-349 -151 -1920 -829 -3465 -1494 l-460 -199 0 -1876 0
-1876 460 -199 c253 -109 966 -416 1585 -683 1793 -773 2292 -987 2302 -987 6
0 375 157 822 350 446 192 1421 612 2166 933 l1355 584 0 1878 0 1878 -75 32
c-41 18 -646 279 -1345 580 -2616 1127 -2914 1255 -2927 1254 -7 0 -195 -79
-418 -175z m1246 -337 c450 -194 1394 -600 2096 -902 l1278 -550 0 -1780 0
-1780 -1278 -550 c-702 -302 -1646 -708 -2097 -903 -450 -194 -826 -351 -835
-349 -8 3 -199 84 -425 182 -951 412 -3077 1328 -3407 1468 l-358 152 0 1780
0 1780 368 156 c377 161 2550 1097 3362 1449 250 109 460 198 466 199 6 0 380
-158 830 -352z"/>
<path d="M5188 7941 c-49 -16 -95 -50 -124 -93 -26 -37 -29 -49 -29 -124 0
-75 3 -86 30 -125 19 -27 51 -54 85 -72 47 -25 63 -28 111 -24 31 3 71 13 89
22 l33 17 165 -165 164 -164 -26 -39 c-63 -97 -75 -228 -30 -341 22 -54 24
-67 13 -78 -34 -30 -259 -205 -265 -205 -4 0 -31 12 -61 26 -45 23 -62 26
-109 21 -69 -7 -132 -43 -170 -98 -26 -38 -29 -50 -29 -125 0 -75 3 -86 30
-125 19 -27 51 -54 85 -72 48 -25 63 -28 113 -24 72 6 138 44 175 99 24 36 27
51 27 117 -1 42 -5 86 -9 97 -7 19 8 35 121 125 70 56 134 107 140 112 9 6 24
1 48 -17 68 -52 143 -79 220 -80 38 -1 88 2 110 7 l40 7 54 -104 55 -104 -36
-41 c-78 -91 -76 -205 4 -296 87 -99 239 -99 326 0 85 97 82 216 -8 306 -51
51 -115 75 -180 66 l-40 -5 -54 105 -55 104 58 58 c33 33 66 78 77 104 23 57
19 56 170 22 17 -4 22 -14 26 -50 7 -60 47 -118 105 -152 100 -59 237 -27 301
69 24 37 27 51 27 123 0 74 -3 86 -29 124 -91 131 -287 131 -368 -1 -28 -46
-30 -46 -175 -13 -20 5 -23 12 -23 53 0 104 -64 228 -149 286 -23 16 -41 34
-41 40 0 7 15 50 34 97 l34 84 62 7 c77 9 141 45 178 100 24 37 27 51 27 123
0 74 -3 86 -29 124 -90 130 -287 129 -373 -1 -20 -30 -28 -56 -31 -103 -5 -81
11 -128 60 -177 l40 -40 -40 -96 c-26 -66 -44 -96 -53 -93 -92 23 -209 3 -285
-49 l-42 -28 -164 167 -165 166 19 35 c30 55 22 164 -16 219 -16 23 -49 54
-72 67 -47 28 -131 39 -176 25z"/>
<path d="M4273 5403 c-10 -3 -13 -49 -13 -179 l0 -173 -36 24 c-93 63 -203 36
-266 -65 -71 -115 -77 -369 -12 -506 62 -130 182 -162 276 -74 23 22 42 39 43
38 1 -2 6 -19 11 -38 11 -41 31 -47 94 -30 42 11 42 12 36 48 -3 20 -6 238 -6
484 0 502 4 479 -73 477 -23 0 -48 -3 -54 -6z m-35 -445 c21 -21 22 -28 22
-197 0 -154 -2 -179 -19 -204 -36 -56 -100 -77 -137 -46 -70 57 -85 337 -24
437 33 55 105 59 158 10z"/>
<path d="M7365 5394 c-14 -15 -16 -61 -13 -463 3 -404 5 -449 21 -478 32 -60
121 -88 195 -62 37 13 44 27 31 73 -9 33 -13 36 -49 36 -29 0 -42 5 -50 19 -6
13 -10 171 -10 445 0 410 -1 426 -19 436 -30 15 -88 12 -106 -6z"/>
<path d="M5940 5321 c-6 -13 -10 -177 -10 -465 0 -430 1 -446 19 -456 11 -5
36 -10 56 -10 76 0 75 -2 75 210 l0 190 78 0 c105 0 168 20 214 67 55 58 71
98 76 189 6 110 -14 179 -67 227 -59 53 -119 67 -287 67 -131 0 -144 -2 -154
-19z m321 -139 c37 -33 49 -87 37 -167 -5 -38 -15 -57 -38 -77 -27 -25 -38
-28 -105 -28 l-75 0 0 150 0 150 75 0 c68 0 78 -3 106 -28z"/>
<path d="M4801 5100 c-90 -22 -160 -112 -182 -235 -17 -90 -6 -248 21 -318 42
-111 115 -159 245 -161 91 -1 153 14 191 48 30 25 29 55 -4 96 l-19 23 -45
-27 c-59 -34 -146 -38 -187 -9 -32 24 -57 75 -64 131 l-5 42 163 0 164 0 21
28 c20 24 22 35 16 97 -11 139 -58 235 -132 270 -44 21 -132 28 -183 15z m134
-130 c24 -27 44 -88 45 -137 l0 -43 -116 0 -115 0 6 48 c11 76 44 135 84 148
41 13 75 8 96 -16z"/>
<path d="M6785 5103 c-58 -13 -115 -36 -130 -53 -15 -17 -16 -24 -5 -49 21
-51 34 -56 88 -33 79 34 162 33 197 -3 20 -19 25 -34 25 -72 l0 -49 -83 -11
c-178 -24 -260 -99 -260 -238 -1 -106 34 -165 115 -199 69 -29 143 -17 210 35
l36 29 7 -30 c7 -34 30 -44 79 -34 48 9 57 22 46 69 -5 22 -10 136 -10 254 0
239 -7 277 -57 327 -50 51 -170 77 -258 57z m175 -456 c0 -77 -3 -97 -17 -109
-32 -28 -66 -40 -107 -40 -55 1 -86 36 -86 95 0 91 63 142 178 146 l32 1 0
-93z"/>
<path d="M7855 5096 c-122 -45 -164 -214 -79 -316 14 -16 55 -46 90 -66 82
-46 114 -83 114 -135 0 -81 -81 -107 -173 -56 l-39 22 -25 -29 c-37 -44 -28
-76 29 -104 140 -70 296 -16 334 115 34 116 -8 202 -131 272 -88 51 -115 90
-101 146 12 46 84 62 143 31 28 -14 32 -14 47 3 9 10 19 35 23 55 5 34 4 37
-33 52 -55 23 -150 28 -199 10z"/>
<path d="M5253 5089 c-12 -12 -17 11 81 -374 43 -165 82 -305 88 -312 12 -14
125 -18 146 -5 15 10 29 59 117 410 57 229 66 275 54 283 -21 13 -105 11 -117
-3 -12 -16 -98 -412 -108 -496 -4 -35 -10 -60 -14 -55 -4 4 -12 42 -19 83 -17
113 -93 453 -104 468 -12 15 -109 16 -124 1z"/>
<path d="M1350 5925 l0 -1875 75 0 75 0 0 1875 0 1875 -75 0 -75 0 0 -1875z"/>
<path d="M10500 5925 l0 -1875 75 0 75 0 0 1875 0 1875 -75 0 -75 0 0 -1875z"/>
</g>
</svg>
